# Blender v2.90.1 OBJ File: ''
# www.blender.org
mtllib garage.mtl
o Garage_v1
v 298.000000 2.000000 175.000000
v 298.000000 2.000000 325.000000
v 298.000000 0.000000 175.000000
v 298.000000 0.000000 325.000000
v -298.000000 2.000000 325.000000
v -298.000000 2.000000 175.000000
v -298.000000 0.000000 325.000000
v -298.000000 0.000000 175.000000
v 300.000000 0.000000 175.000000
v 300.000000 202.000000 175.000000
v 298.000000 202.000000 175.000000
v -300.000000 0.000000 175.000000
v -300.000000 202.000000 175.000000
v -298.000000 202.000000 175.000000
v 298.000000 2.000000 -173.000000
v 298.000000 202.000000 -173.000000
v -298.000000 2.000000 -173.000000
v -298.000000 202.000000 -173.000000
v -300.000000 202.000000 -175.000000
v 300.000000 202.000000 -175.000000
v 100.000000 2.000000 0.000000
v 96.858315 2.000000 24.868990
v 87.630669 2.000000 48.175365
v 6.279052 2.000000 -99.802673
v 30.901699 2.000000 -95.105652
v 53.582680 2.000000 -84.432793
v -99.211472 2.000000 12.533323
v -99.211472 2.000000 -12.533323
v -92.977646 2.000000 -36.812454
v -42.577930 2.000000 90.482704
v -63.742397 2.000000 77.051323
v -80.901695 2.000000 58.778526
v 6.279052 2.000000 99.802673
v -18.738131 2.000000 98.228722
v 30.901699 2.000000 95.105652
v 53.582680 2.000000 84.432793
v 72.896866 2.000000 68.454712
v -92.977646 2.000000 36.812454
v -80.901695 2.000000 -58.778526
v -63.742397 2.000000 -77.051323
v -42.577930 2.000000 -90.482704
v -18.738131 2.000000 -98.228722
v 72.896866 2.000000 -68.454712
v 87.630669 2.000000 -48.175365
v 96.858315 2.000000 -24.868990
v 82.103699 24.000000 21.999619
v 82.103699 27.000000 21.999619
v 85.000000 24.000000 0.000000
v 85.000000 27.000000 0.000000
v 82.103699 24.000000 -21.999619
v 82.103699 27.000000 -21.999619
v 73.612160 24.000000 -42.500000
v 73.612160 27.000000 -42.500000
v 60.104076 24.000000 -60.104076
v 60.104076 27.000000 -60.104076
v 42.500000 24.000000 -73.612160
v 42.500000 27.000000 -73.612160
v 21.999619 24.000000 -82.103699
v 21.999619 27.000000 -82.103699
v 0.000000 24.000000 -85.000000
v 0.000000 27.000000 -85.000000
v -21.999619 24.000000 -82.103699
v -21.999619 27.000000 -82.103699
v -42.500000 24.000000 -73.612160
v -42.500000 27.000000 -73.612160
v -60.104076 24.000000 -60.104076
v -60.104076 27.000000 -60.104076
v -73.612160 24.000000 -42.500000
v -73.612160 27.000000 -42.500000
v -82.103699 24.000000 -21.999619
v -82.103699 27.000000 -21.999619
v -85.000000 24.000000 0.000000
v -85.000000 27.000000 0.000000
v -82.103699 24.000000 21.999619
v -82.103699 27.000000 21.999619
v -73.612160 24.000000 42.500000
v -73.612160 27.000000 42.500000
v -60.104076 24.000000 60.104076
v -60.104076 27.000000 60.104076
v -42.500000 24.000000 73.612160
v -42.500000 27.000000 73.612160
v -21.999619 24.000000 82.103699
v -21.999619 27.000000 82.103699
v 0.000000 24.000000 85.000000
v 0.000000 27.000000 85.000000
v 21.999619 24.000000 82.103699
v 21.999619 27.000000 82.103699
v 42.500000 24.000000 73.612160
v 42.500000 27.000000 73.612160
v 60.104076 24.000000 60.104076
v 60.104076 27.000000 60.104076
v 73.612160 24.000000 42.500000
v 73.612160 27.000000 42.500000
v 96.858315 27.000000 24.868990
v 100.000000 27.000000 0.000000
v 96.858315 27.000000 -24.868990
v 87.630669 27.000000 -48.175365
v 72.896866 27.000000 -68.454712
v 53.582680 27.000000 -84.432793
v 30.901699 27.000000 -95.105652
v 6.279052 27.000000 -99.802673
v -18.738131 27.000000 -98.228722
v -42.577930 27.000000 -90.482704
v -63.742397 27.000000 -77.051323
v -80.901695 27.000000 -58.778526
v -92.977646 27.000000 -36.812454
v -99.211472 27.000000 -12.533323
v -99.211472 27.000000 12.533323
v -92.977646 27.000000 36.812454
v -80.901695 27.000000 58.778526
v -63.742397 27.000000 77.051323
v -42.577930 27.000000 90.482704
v -18.738131 27.000000 98.228722
v 6.279052 27.000000 99.802673
v 30.901699 27.000000 95.105652
v 53.582680 27.000000 84.432793
v 72.896866 27.000000 68.454712
v 87.630669 27.000000 48.175365
v -300.000000 0.000000 -175.000000
v 300.000000 0.000000 -175.000000
vt 0.132396 0.059526
vt 0.213169 0.059526
vt 0.132396 0.060603
vt 0.213169 0.060603
vt 0.105143 0.078314
vt 0.204587 0.078314
vt 0.105143 0.079640
vt 0.204587 0.079640
vt 0.065150 0.116528
vt 0.228156 0.116528
vt 0.065150 0.117075
vt 0.228156 0.117075
vt 59.799999 0.000000
vt 60.000000 0.000000
vt 59.799999 0.200000
vt 60.000000 20.200001
vt 59.799999 20.200001
vt 0.031616 0.093444
vt 0.031616 0.094716
vt 0.030343 0.093444
vt 0.030343 0.221996
vt 0.031616 0.221996
vt 0.246216 0.911804
vt 0.755080 0.911804
vt 0.246216 0.963415
vt 0.755080 0.963415
vt 0.012040 0.761605
vt 0.984028 0.761605
vt 0.012040 0.847935
vt 0.984028 0.847935
vt 0.243350 0.682376
vt 0.748092 0.682376
vt 0.243350 0.739238
vt 0.748092 0.739238
vt 0.039475 0.102124
vt 0.040042 0.200742
vt 0.039475 0.201309
vt 0.208939 0.200742
vt 0.209506 0.201309
vt 0.209506 0.102124
vt 0.208939 0.102124
vt 0.040042 0.102124
vt 0.958620 0.611554
vt 0.887389 0.549317
vt 0.958620 0.486361
vt 0.886259 0.540371
vt 0.882939 0.531986
vt 0.744209 0.611554
vt 0.853673 0.585221
vt 0.862531 0.583532
vt 0.870691 0.579692
vt 0.744209 0.486361
vt 0.815723 0.544809
vt 0.815723 0.553826
vt 0.817966 0.562561
vt 0.744209 0.432399
vt 0.836097 0.516766
vt 0.828483 0.521598
vt 0.822310 0.528172
vt 0.958620 0.432399
vt 0.853673 0.513413
vt 0.844673 0.513980
vt 0.862531 0.515103
vt 0.870691 0.518943
vt 0.877639 0.524691
vt 0.817966 0.536074
vt 0.822310 0.570463
vt 0.828483 0.577037
vt 0.836097 0.581869
vt 0.844673 0.584655
vt 0.877639 0.573944
vt 0.882939 0.566648
vt 0.886259 0.558264
vt 0.701676 0.224823
vt 0.701075 0.224823
vt 0.701676 0.220364
vt 0.701075 0.220364
vt 0.701676 0.327380
vt 0.701075 0.327380
vt 0.701676 0.322921
vt 0.701075 0.322921
vt 0.701676 0.318462
vt 0.701075 0.318462
vt 0.701676 0.314003
vt 0.701075 0.314003
vt 0.701676 0.309544
vt 0.701075 0.309544
vt 0.701676 0.305085
vt 0.701075 0.305085
vt 0.701676 0.300626
vt 0.701075 0.300626
vt 0.701676 0.296167
vt 0.701075 0.296167
vt 0.701676 0.291708
vt 0.701075 0.291708
vt 0.701676 0.287249
vt 0.701075 0.287249
vt 0.701676 0.282790
vt 0.701075 0.282790
vt 0.701676 0.278331
vt 0.701075 0.278331
vt 0.701676 0.273872
vt 0.701075 0.273872
vt 0.701676 0.269413
vt 0.701075 0.269413
vt 0.701676 0.264954
vt 0.701075 0.264954
vt 0.701676 0.260495
vt 0.701075 0.260495
vt 0.701676 0.256036
vt 0.701075 0.256036
vt 0.701676 0.251577
vt 0.701075 0.251577
vt 0.701676 0.247118
vt 0.701075 0.247118
vt 0.701676 0.242659
vt 0.701075 0.242659
vt 0.701676 0.238200
vt 0.701075 0.238200
vt 0.701676 0.233741
vt 0.701075 0.233741
vt 0.701676 0.229282
vt 0.701075 0.229282
vt 0.318388 0.229171
vt 0.687799 0.229171
vt 0.311873 0.278662
vt 0.694314 0.278662
vt 0.318388 0.328154
vt 0.687799 0.328154
vt 0.337491 0.374273
vt 0.668696 0.374273
vt 0.367880 0.413876
vt 0.638307 0.413876
vt 0.407483 0.444264
vt 0.598704 0.444264
vt 0.453602 0.463367
vt 0.552585 0.463367
vt 0.503093 0.469883
vt 0.668696 0.183052
vt 0.337491 0.183052
vt 0.638307 0.143449
vt 0.367880 0.143449
vt 0.598704 0.113060
vt 0.407483 0.113060
vt 0.552585 0.093957
vt 0.453602 0.093957
vt 0.503093 0.087442
vt 0.295582 0.347542
vt 0.301627 0.347542
vt 0.295582 0.353620
vt 0.301627 0.353620
vt 0.295582 0.201683
vt 0.301627 0.201683
vt 0.295582 0.207760
vt 0.301627 0.207760
vt 0.295582 0.213838
vt 0.301627 0.213838
vt 0.295582 0.219915
vt 0.301627 0.219915
vt 0.295582 0.225993
vt 0.301627 0.225993
vt 0.295582 0.232070
vt 0.301627 0.232070
vt 0.295582 0.238148
vt 0.301627 0.238148
vt 0.295582 0.244225
vt 0.301627 0.244225
vt 0.295582 0.250303
vt 0.301627 0.250303
vt 0.295582 0.256380
vt 0.301627 0.256380
vt 0.295582 0.262458
vt 0.301627 0.262458
vt 0.295582 0.268535
vt 0.301627 0.268535
vt 0.295582 0.274612
vt 0.301627 0.274612
vt 0.295582 0.280690
vt 0.301627 0.280690
vt 0.295582 0.286767
vt 0.301627 0.286767
vt 0.295582 0.292845
vt 0.301627 0.292845
vt 0.295582 0.298922
vt 0.301627 0.298922
vt 0.295582 0.305000
vt 0.301627 0.305000
vt 0.295582 0.311077
vt 0.301627 0.311077
vt 0.295582 0.317155
vt 0.301627 0.317155
vt 0.295582 0.323232
vt 0.301627 0.323232
vt 0.295582 0.329310
vt 0.301627 0.329310
vt 0.295582 0.335387
vt 0.301627 0.335387
vt 0.295582 0.341465
vt 0.301627 0.341465
vt 0.296196 0.334100
vt 0.259015 0.341331
vt 0.288898 0.278662
vt 0.251098 0.278662
vt 0.259015 0.215994
vt 0.282268 0.400062
vt 0.317594 0.385760
vt 0.319397 0.451165
vt 0.351634 0.430122
vt 0.368068 0.491429
vt 0.395996 0.464161
vt 0.425223 0.518324
vt 0.447655 0.485560
vt 0.487270 0.530160
vt 0.503093 0.492858
vt 0.550313 0.526194
vt 0.558531 0.485560
vt 0.610388 0.506674
vt 0.610191 0.464161
vt 0.663721 0.472828
vt 0.654553 0.430122
vt 0.706962 0.426781
vt 0.688592 0.385760
vt 0.737393 0.371428
vt 0.709991 0.334100
vt 0.753101 0.310246
vt 0.717289 0.278662
vt 0.753101 0.247079
vt 0.709991 0.223224
vt 0.737393 0.185897
vt 0.688592 0.171564
vt 0.706962 0.130543
vt 0.654553 0.127203
vt 0.663721 0.084497
vt 0.610191 0.093163
vt 0.610388 0.050650
vt 0.558531 0.071765
vt 0.550313 0.031131
vt 0.503093 0.064467
vt 0.487270 0.027165
vt 0.447655 0.071765
vt 0.425223 0.039001
vt 0.395996 0.093163
vt 0.368068 0.065896
vt 0.351634 0.127203
vt 0.319397 0.106160
vt 0.317594 0.171564
vt 0.282268 0.157263
vt 0.296196 0.223224
vt 0.240961 0.848273
vt 0.759055 0.848273
vt 0.240961 0.916820
vt 0.759055 0.916820
vt 0.748991 0.988198
vt 0.245631 0.988198
vt 0.748991 0.940406
vt 0.245631 0.940406
vt 0.250943 0.703803
vt 0.748826 0.703803
vt 0.250943 0.775590
vt 0.748826 0.775590
vt 0.039122 0.525629
vt 0.039730 0.525629
vt 0.039122 0.631937
vt 0.220757 0.525629
vt 0.221365 0.631937
vt 0.221365 0.525629
vt 0.039730 0.480069
vt 0.220757 0.480069
vn 1.0000 0.0000 0.0000
vn -1.0000 0.0000 0.0000
vn 0.0000 0.0000 1.0000
vn 0.0000 1.0000 0.0000
vn -0.9659 0.0000 -0.2588
vn -0.9659 0.0000 0.2588
vn -0.8660 0.0000 0.5000
vn -0.7071 0.0000 0.7071
vn -0.5000 0.0000 0.8660
vn -0.2588 0.0000 0.9659
vn 0.2588 0.0000 0.9659
vn 0.5000 0.0000 0.8660
vn 0.7071 0.0000 0.7071
vn 0.8660 0.0000 0.5000
vn 0.9659 0.0000 0.2588
vn 0.9659 0.0000 -0.2588
vn 0.8660 0.0000 -0.5000
vn 0.7071 0.0000 -0.7071
vn 0.5000 0.0000 -0.8660
vn 0.2588 0.0000 -0.9659
vn 0.0000 0.0000 -1.0000
vn -0.2588 0.0000 -0.9659
vn -0.5000 0.0000 -0.8660
vn -0.7071 0.0000 -0.7071
vn -0.8660 0.0000 -0.5000
vn 0.9686 0.0000 0.2487
vn 0.9686 0.0000 -0.2487
vn 0.8763 0.0000 -0.4818
vn 0.7290 0.0000 -0.6845
vn 0.5358 0.0000 -0.8443
vn 0.3090 0.0000 -0.9511
vn 0.0628 0.0000 -0.9980
vn -0.1874 0.0000 -0.9823
vn -0.4258 0.0000 -0.9048
vn -0.6374 0.0000 -0.7705
vn -0.8090 0.0000 -0.5878
vn -0.9298 0.0000 -0.3681
vn -0.9921 0.0000 -0.1253
vn -0.9921 0.0000 0.1253
vn -0.9298 0.0000 0.3681
vn -0.8090 0.0000 0.5878
vn -0.6374 0.0000 0.7705
vn -0.4258 0.0000 0.9048
vn -0.1874 0.0000 0.9823
vn 0.0628 0.0000 0.9980
vn 0.3090 0.0000 0.9511
vn 0.5358 0.0000 0.8443
vn 0.7290 0.0000 0.6845
vn 0.8763 0.0000 0.4818
vn 0.0000 -1.0000 0.0000
usemtl Steel_-_Satin
s 1
f 1/1/1 2/2/1 3/3/1
f 3/3/1 2/2/1 4/4/1
f 5/5/2 6/6/2 7/7/2
f 7/7/2 6/6/2 8/8/2
f 2/9/3 5/10/3 4/11/3
f 4/11/3 5/10/3 7/12/3
f 3/13/3 9/14/3 1/15/3
f 1/15/3 9/14/3 10/16/3
f 1/15/3 10/16/3 11/17/3
f 8/18/3 6/19/3 12/20/3
f 12/20/3 6/19/3 13/21/3
f 13/21/3 6/19/3 14/22/3
f 15/23/2 1/24/2 16/25/2
f 16/25/2 1/24/2 11/26/2
f 17/27/3 15/28/3 18/29/3
f 18/29/3 15/28/3 16/30/3
f 6/31/1 17/32/1 14/33/1
f 14/33/1 17/32/1 18/34/1
f 13/35/4 18/36/4 19/37/4
f 19/37/4 18/36/4 16/38/4
f 19/37/4 16/38/4 20/39/4
f 20/39/4 16/38/4 10/40/4
f 10/40/4 16/38/4 11/41/4
f 13/35/4 14/42/4 18/36/4
f 15/43/4 21/44/4 1/45/4
f 1/45/4 21/44/4 22/46/4
f 1/45/4 22/46/4 23/47/4
f 17/48/4 24/49/4 15/43/4
f 15/43/4 24/49/4 25/50/4
f 15/43/4 25/50/4 26/51/4
f 6/52/4 27/53/4 17/48/4
f 17/48/4 27/53/4 28/54/4
f 17/48/4 28/54/4 29/55/4
f 5/56/4 30/57/4 6/52/4
f 6/52/4 30/57/4 31/58/4
f 6/52/4 31/58/4 32/59/4
f 2/60/4 33/61/4 5/56/4
f 5/56/4 33/61/4 34/62/4
f 5/56/4 34/62/4 30/57/4
f 33/61/4 2/60/4 35/63/4
f 35/63/4 2/60/4 1/45/4
f 35/63/4 1/45/4 36/64/4
f 36/64/4 1/45/4 37/65/4
f 37/65/4 1/45/4 23/47/4
f 32/59/4 38/66/4 6/52/4
f 6/52/4 38/66/4 27/53/4
f 29/55/4 39/67/4 17/48/4
f 17/48/4 39/67/4 40/68/4
f 17/48/4 40/68/4 41/69/4
f 41/69/4 42/70/4 17/48/4
f 17/48/4 42/70/4 24/49/4
f 26/51/4 43/71/4 15/43/4
f 15/43/4 43/71/4 44/72/4
f 15/43/4 44/72/4 45/73/4
f 45/73/4 21/44/4 15/43/4
f 46/74/5 47/75/5 48/76/2
f 48/76/2 47/75/5 49/77/2
f 48/78/2 49/79/2 50/80/6
f 50/80/6 49/79/2 51/81/6
f 50/80/6 51/81/6 52/82/7
f 52/82/7 51/81/6 53/83/7
f 52/82/7 53/83/7 54/84/8
f 54/84/8 53/83/7 55/85/8
f 54/84/8 55/85/8 56/86/9
f 56/86/9 55/85/8 57/87/9
f 56/86/9 57/87/9 58/88/10
f 58/88/10 57/87/9 59/89/10
f 58/88/10 59/89/10 60/90/3
f 60/90/3 59/89/10 61/91/3
f 60/90/3 61/91/3 62/92/11
f 62/92/11 61/91/3 63/93/11
f 62/92/11 63/93/11 64/94/12
f 64/94/12 63/93/11 65/95/12
f 64/94/12 65/95/12 66/96/13
f 66/96/13 65/95/12 67/97/13
f 66/96/13 67/97/13 68/98/14
f 68/98/14 67/97/13 69/99/14
f 68/98/14 69/99/14 70/100/15
f 70/100/15 69/99/14 71/101/15
f 70/100/15 71/101/15 72/102/1
f 72/102/1 71/101/15 73/103/1
f 72/102/1 73/103/1 74/104/16
f 74/104/16 73/103/1 75/105/16
f 74/104/16 75/105/16 76/106/17
f 76/106/17 75/105/16 77/107/17
f 76/106/17 77/107/17 78/108/18
f 78/108/18 77/107/17 79/109/18
f 78/108/18 79/109/18 80/110/19
f 80/110/19 79/109/18 81/111/19
f 80/110/19 81/111/19 82/112/20
f 82/112/20 81/111/19 83/113/20
f 82/112/20 83/113/20 84/114/21
f 84/114/21 83/113/20 85/115/21
f 84/114/21 85/115/21 86/116/22
f 86/116/22 85/115/21 87/117/22
f 86/116/22 87/117/22 88/118/23
f 88/118/23 87/117/22 89/119/23
f 88/118/23 89/119/23 90/120/24
f 90/120/24 89/119/23 91/121/24
f 90/120/24 91/121/24 92/122/25
f 92/122/25 91/121/24 93/123/25
f 92/122/25 93/123/25 46/74/5
f 46/74/5 93/123/25 47/75/5
f 50/124/4 70/125/4 48/126/4
f 48/126/4 70/125/4 72/127/4
f 48/126/4 72/127/4 46/128/4
f 46/128/4 72/127/4 74/129/4
f 46/128/4 74/129/4 92/130/4
f 92/130/4 74/129/4 76/131/4
f 92/130/4 76/131/4 90/132/4
f 90/132/4 76/131/4 78/133/4
f 90/132/4 78/133/4 88/134/4
f 88/134/4 78/133/4 80/135/4
f 88/134/4 80/135/4 86/136/4
f 86/136/4 80/135/4 82/137/4
f 86/136/4 82/137/4 84/138/4
f 70/125/4 50/124/4 68/139/4
f 68/139/4 50/124/4 52/140/4
f 68/139/4 52/140/4 66/141/4
f 66/141/4 52/140/4 54/142/4
f 66/141/4 54/142/4 64/143/4
f 64/143/4 54/142/4 56/144/4
f 64/143/4 56/144/4 62/145/4
f 62/145/4 56/144/4 58/146/4
f 62/145/4 58/146/4 60/147/4
f 94/148/26 22/149/26 95/150/1
f 95/150/1 22/149/26 21/151/1
f 95/152/1 21/153/1 96/154/27
f 96/154/27 21/153/1 45/155/27
f 96/154/27 45/155/27 97/156/28
f 97/156/28 45/155/27 44/157/28
f 97/156/28 44/157/28 98/158/29
f 98/158/29 44/157/28 43/159/29
f 98/158/29 43/159/29 99/160/30
f 99/160/30 43/159/29 26/161/30
f 99/160/30 26/161/30 100/162/31
f 100/162/31 26/161/30 25/163/31
f 100/162/31 25/163/31 101/164/32
f 101/164/32 25/163/31 24/165/32
f 101/164/32 24/165/32 102/166/33
f 102/166/33 24/165/32 42/167/33
f 102/166/33 42/167/33 103/168/34
f 103/168/34 42/167/33 41/169/34
f 103/168/34 41/169/34 104/170/35
f 104/170/35 41/169/34 40/171/35
f 104/170/35 40/171/35 105/172/36
f 105/172/36 40/171/35 39/173/36
f 105/172/36 39/173/36 106/174/37
f 106/174/37 39/173/36 29/175/37
f 106/174/37 29/175/37 107/176/38
f 107/176/38 29/175/37 28/177/38
f 107/176/38 28/177/38 108/178/39
f 108/178/39 28/177/38 27/179/39
f 108/178/39 27/179/39 109/180/40
f 109/180/40 27/179/39 38/181/40
f 109/180/40 38/181/40 110/182/41
f 110/182/41 38/181/40 32/183/41
f 110/182/41 32/183/41 111/184/42
f 111/184/42 32/183/41 31/185/42
f 111/184/42 31/185/42 112/186/43
f 112/186/43 31/185/42 30/187/43
f 112/186/43 30/187/43 113/188/44
f 113/188/44 30/187/43 34/189/44
f 113/188/44 34/189/44 114/190/45
f 114/190/45 34/189/44 33/191/45
f 114/190/45 33/191/45 115/192/46
f 115/192/46 33/191/45 35/193/46
f 115/192/46 35/193/46 116/194/47
f 116/194/47 35/193/46 36/195/47
f 116/194/47 36/195/47 117/196/48
f 117/196/48 36/195/47 37/197/48
f 117/196/48 37/197/48 118/198/49
f 118/198/49 37/197/48 23/199/49
f 118/198/49 23/199/49 94/148/26
f 94/148/26 23/199/49 22/149/26
f 47/200/4 94/201/4 49/202/4
f 49/202/4 94/201/4 95/203/4
f 49/202/4 95/203/4 96/204/4
f 94/201/4 47/200/4 118/205/4
f 118/205/4 47/200/4 93/206/4
f 118/205/4 93/206/4 117/207/4
f 117/207/4 93/206/4 91/208/4
f 117/207/4 91/208/4 116/209/4
f 116/209/4 91/208/4 89/210/4
f 116/209/4 89/210/4 115/211/4
f 115/211/4 89/210/4 87/212/4
f 115/211/4 87/212/4 114/213/4
f 114/213/4 87/212/4 85/214/4
f 114/213/4 85/214/4 113/215/4
f 113/215/4 85/214/4 83/216/4
f 113/215/4 83/216/4 112/217/4
f 112/217/4 83/216/4 81/218/4
f 112/217/4 81/218/4 111/219/4
f 111/219/4 81/218/4 79/220/4
f 111/219/4 79/220/4 110/221/4
f 110/221/4 79/220/4 77/222/4
f 110/221/4 77/222/4 109/223/4
f 109/223/4 77/222/4 75/224/4
f 109/223/4 75/224/4 108/225/4
f 108/225/4 75/224/4 73/226/4
f 108/225/4 73/226/4 107/227/4
f 107/227/4 73/226/4 71/228/4
f 107/227/4 71/228/4 106/229/4
f 106/229/4 71/228/4 69/230/4
f 106/229/4 69/230/4 105/231/4
f 105/231/4 69/230/4 67/232/4
f 105/231/4 67/232/4 104/233/4
f 104/233/4 67/232/4 65/234/4
f 104/233/4 65/234/4 103/235/4
f 103/235/4 65/234/4 63/236/4
f 103/235/4 63/236/4 102/237/4
f 102/237/4 63/236/4 61/238/4
f 102/237/4 61/238/4 101/239/4
f 101/239/4 61/238/4 59/240/4
f 101/239/4 59/240/4 100/241/4
f 100/241/4 59/240/4 57/242/4
f 100/241/4 57/242/4 99/243/4
f 99/243/4 57/242/4 55/244/4
f 99/243/4 55/244/4 98/245/4
f 98/245/4 55/244/4 53/246/4
f 98/245/4 53/246/4 97/247/4
f 97/247/4 53/246/4 51/248/4
f 97/247/4 51/248/4 96/204/4
f 96/204/4 51/248/4 49/202/4
f 119/249/2 12/250/2 19/251/2
f 19/251/2 12/250/2 13/252/2
f 120/253/21 119/254/21 20/255/21
f 20/255/21 119/254/21 19/256/21
f 9/257/1 120/258/1 10/259/1
f 10/259/1 120/258/1 20/260/1
f 9/261/50 3/262/50 120/263/50
f 120/263/50 3/262/50 8/264/50
f 120/263/50 8/264/50 119/265/50
f 119/265/50 8/264/50 12/266/50
f 4/267/50 7/268/50 3/262/50
f 3/262/50 7/268/50 8/264/50
