# Blender v2.90.1 OBJ File: ''
# www.blender.org
mtllib extern.mtl
o Kart_Extern_v1
v 47.000000 -19.789999 -45.000000
v 47.000000 -19.789999 45.000000
v 47.000000 0.210001 -45.000000
v 47.000000 0.210001 45.000000
v 20.000000 0.210001 -72.000000
v 20.000000 -19.789999 -72.000000
v 26.008066 0.210001 -71.323051
v 26.008066 -19.789999 -71.323051
v 31.714863 0.210001 -69.326164
v 31.714863 -19.789999 -69.326164
v 36.834225 0.210001 -66.109451
v 36.834225 -19.789999 -66.109451
v 41.109451 0.210001 -61.834225
v 41.109451 -19.789999 -61.834225
v 44.326160 0.210001 -56.714863
v 44.326160 -19.789999 -56.714863
v 46.323055 0.210001 -51.008068
v 46.323055 -19.789999 -51.008068
v -20.000000 -19.789999 -72.000000
v -20.000000 0.210001 -72.000000
v -47.000000 0.210001 -45.000000
v -47.000000 -19.789999 -45.000000
v -46.323055 0.210001 -51.008068
v -46.323055 -19.789999 -51.008068
v -44.326160 0.210001 -56.714863
v -44.326160 -19.789999 -56.714863
v -41.109451 0.210001 -61.834225
v -41.109451 -19.789999 -61.834225
v -36.834225 0.210001 -66.109451
v -36.834225 -19.789999 -66.109451
v -31.714863 0.210001 -69.326164
v -31.714863 -19.789999 -69.326164
v -26.008066 0.210001 -71.323051
v -26.008066 -19.789999 -71.323051
v -47.000000 -19.789999 45.000000
v -47.000000 0.210001 45.000000
v -20.000000 0.210001 72.000000
v -20.000000 -19.789999 72.000000
v -26.008066 0.210001 71.323051
v -26.008066 -19.789999 71.323051
v -31.714863 0.210001 69.326164
v -31.714863 -19.789999 69.326164
v -36.834225 0.210001 66.109451
v -36.834225 -19.789999 66.109451
v -41.109451 0.210001 61.834225
v -41.109451 -19.789999 61.834225
v -44.326160 0.210001 56.714863
v -44.326160 -19.789999 56.714863
v -46.323055 0.210001 51.008068
v -46.323055 -19.789999 51.008068
v 24.720154 -19.789999 72.000000
v 24.720154 0.210001 72.000000
v 46.467476 0.210001 50.385662
v 46.467476 -19.789999 50.385662
v 44.890522 -19.789999 55.562740
v 44.890522 0.210001 55.562740
v 42.330212 -19.789999 60.330730
v 42.330212 0.210001 60.330730
v 38.885708 -19.789999 64.504982
v 38.885708 0.210001 64.504982
v 34.690414 -19.789999 67.923820
v 34.690414 0.210001 67.923820
v 29.906809 -19.789999 70.454826
v 29.906809 0.210001 70.454826
v -50.000000 -19.789999 -45.000000
v -50.000000 0.210001 -45.000000
v -49.423561 -19.789999 -50.852711
v -49.423561 0.210001 -50.852711
v -47.716385 -19.789999 -56.480507
v -47.716385 0.210001 -56.480507
v -44.944088 -19.789999 -61.667110
v -44.944088 0.210001 -61.667110
v -41.213203 -19.789999 -66.213203
v -41.213203 0.210001 -66.213203
v -36.667110 -19.789999 -69.944084
v -36.667110 0.210001 -69.944084
v -31.480503 -19.789999 -72.716393
v -31.480503 0.210001 -72.716393
v -25.852711 -19.789999 -74.423561
v -25.852711 0.210001 -74.423561
v -20.000000 -19.789999 -75.000000
v -20.000000 0.210001 -75.000000
v 20.000000 0.210001 -75.000000
v 20.000000 -19.789999 -75.000000
v -50.000000 0.210001 45.000000
v -49.423561 0.210001 50.852711
v 25.852711 0.210001 -74.423561
v 31.480503 0.210001 -72.716393
v 36.667110 0.210001 -69.944084
v 41.213203 0.210001 -66.213203
v 44.944088 0.210001 -61.667110
v 47.716385 0.210001 -56.480507
v 49.423561 0.210001 -50.852711
v 50.000000 0.210001 -45.000000
v 50.000000 0.210001 45.000000
v 49.423561 0.210001 50.852711
v 47.716385 0.210001 56.480507
v 44.944088 0.210001 61.667110
v 41.213203 0.210001 66.213203
v 36.667110 0.210001 69.944084
v 31.480503 0.210001 72.716393
v 25.852711 0.210001 74.423561
v 20.000000 0.210001 75.000000
v -20.000000 0.210001 75.000000
v -25.852711 0.210001 74.423561
v -31.480503 0.210001 72.716393
v -36.667110 0.210001 69.944084
v -41.213203 0.210001 66.213203
v -44.944088 0.210001 61.667110
v -47.716385 0.210001 56.480507
v 25.852711 -19.789999 -74.423561
v 31.480503 -19.789999 -72.716393
v 36.667110 -19.789999 -69.944084
v 41.213203 -19.789999 -66.213203
v 44.944088 -19.789999 -61.667110
v 47.716385 -19.789999 -56.480507
v 49.423561 -19.789999 -50.852711
v 50.000000 -19.789999 -45.000000
v 50.000000 -19.789999 45.000000
v 49.423561 -19.789999 50.852711
v 47.716385 -19.789999 56.480507
v 44.944088 -19.789999 61.667110
v 41.213203 -19.789999 66.213203
v 36.667110 -19.789999 69.944084
v 31.480503 -19.789999 72.716393
v 25.852711 -19.789999 74.423561
v 20.000000 -19.789999 75.000000
v -20.000000 -19.789999 75.000000
v -25.852711 -19.789999 74.423561
v -31.480503 -19.789999 72.716393
v -36.667110 -19.789999 69.944084
v -41.213203 -19.789999 66.213203
v -44.944088 -19.789999 61.667110
v -47.716385 -19.789999 56.480507
v -49.423561 -19.789999 50.852711
v -50.000000 -19.789999 45.000000
vt 0.024460 0.956107
vt 0.004956 0.956107
vt 0.024460 0.951773
vt 0.004956 0.951773
vt 0.024460 0.942582
vt 0.028794 0.942582
vt 0.024460 0.943895
vt 0.028794 0.943895
vt 0.024460 0.945208
vt 0.028794 0.945208
vt 0.024460 0.946521
vt 0.028612 0.933905
vt 0.024278 0.935218
vt 0.028612 0.935218
vt 0.024460 0.949147
vt 0.028794 0.949147
vt 0.024460 0.950460
vt 0.028794 0.950460
vt 0.028794 0.951773
vt 0.024388 0.952137
vt 0.015719 0.952137
vt 0.024388 0.947803
vt 0.015719 0.947803
vt 0.024388 0.938613
vt 0.028722 0.938613
vt 0.024388 0.939926
vt 0.028722 0.939926
vt 0.024388 0.941239
vt 0.028722 0.941239
vt 0.024388 0.942551
vt 0.028722 0.942551
vt 0.024388 0.943865
vt 0.028722 0.943865
vt 0.024388 0.945177
vt 0.028722 0.945177
vt 0.024388 0.946490
vt 0.028722 0.946490
vt 0.028722 0.947803
vt 0.024713 0.948529
vt 0.005209 0.948529
vt 0.024713 0.944195
vt 0.005209 0.944195
vt 0.024713 0.935004
vt 0.029047 0.935004
vt 0.024713 0.936317
vt 0.029047 0.936317
vt 0.024713 0.937630
vt 0.029047 0.937630
vt 0.024713 0.938943
vt 0.029047 0.938943
vt 0.024713 0.940256
vt 0.029047 0.940256
vt 0.024713 0.941569
vt 0.029047 0.941569
vt 0.024713 0.942882
vt 0.029047 0.942882
vt 0.029047 0.944195
vt 0.024422 0.956120
vt 0.014731 0.956120
vt 0.024422 0.951786
vt 0.014731 0.951786
vt 0.024422 0.943563
vt 0.028757 0.943563
vt 0.024422 0.944738
vt 0.028757 0.944738
vt 0.028757 0.945913
vt 0.024422 0.945913
vt 0.028757 0.947087
vt 0.024422 0.947087
vt 0.028757 0.948262
vt 0.024422 0.948262
vt 0.028757 0.949437
vt 0.024422 0.949437
vt 0.028757 0.950611
vt 0.024422 0.950611
vt 0.028757 0.951786
vt 0.032425 0.983666
vt 0.001938 0.983666
vt 0.032425 0.974687
vt 0.001938 0.974687
vt 0.032425 0.965708
vt 0.001938 0.965708
vt 0.032425 0.956729
vt 0.001938 0.956729
vt 0.032425 0.947750
vt 0.001938 0.947750
vt 0.032425 0.938771
vt 0.001938 0.938771
vt 0.032425 0.929792
vt 0.001938 0.929792
vt 0.032425 0.920813
vt 0.001938 0.920813
vt 0.032425 0.911834
vt 0.001938 0.911834
vt 0.696978 0.011360
vt 0.844010 0.011360
vt 0.696978 0.984322
vt 0.844010 0.984322
vt 0.007013 0.966208
vt 0.006294 0.966208
vt 0.007013 0.944621
vt 0.006294 0.944621
vt 0.006432 0.943218
vt 0.006432 0.967613
vt 0.007176 0.967650
vt 0.006842 0.968962
vt 0.007655 0.969018
vt 0.007507 0.970206
vt 0.008426 0.970247
vt 0.008401 0.971297
vt 0.009452 0.971272
vt 0.009492 0.972192
vt 0.010680 0.972044
vt 0.010736 0.972857
vt 0.012049 0.972522
vt 0.012086 0.973266
vt 0.013490 0.972685
vt 0.013490 0.973404
vt 0.023084 0.972685
vt 0.023084 0.973404
vt 0.024488 0.973266
vt 0.024525 0.972522
vt 0.025838 0.972857
vt 0.025894 0.972044
vt 0.027082 0.972192
vt 0.027122 0.971272
vt 0.028172 0.971297
vt 0.028147 0.970247
vt 0.029067 0.970206
vt 0.028919 0.969018
vt 0.029732 0.968962
vt 0.029398 0.967650
vt 0.030142 0.967613
vt 0.029560 0.966208
vt 0.030280 0.966208
vt 0.030280 0.944621
vt 0.029560 0.944621
vt 0.030142 0.943218
vt 0.029433 0.943329
vt 0.029732 0.941868
vt 0.029054 0.942088
vt 0.029067 0.940623
vt 0.028440 0.940944
vt 0.028172 0.939533
vt 0.027614 0.939943
vt 0.027082 0.938638
vt 0.026608 0.939123
vt 0.025838 0.937973
vt 0.025460 0.938516
vt 0.024488 0.937564
vt 0.024216 0.938145
vt 0.023084 0.937425
vt 0.013490 0.938145
vt 0.013490 0.937425
vt 0.012086 0.937564
vt 0.012049 0.938307
vt 0.010736 0.937973
vt 0.010680 0.938786
vt 0.009492 0.938638
vt 0.009452 0.939558
vt 0.008401 0.939533
vt 0.008426 0.940583
vt 0.007507 0.940623
vt 0.007655 0.941811
vt 0.006842 0.941868
vt 0.007176 0.943180
vt 0.032744 0.986864
vt 0.002258 0.986864
vt 0.032744 0.977885
vt 0.002258 0.977885
vt 0.032744 0.968906
vt 0.002258 0.968906
vt 0.032744 0.959927
vt 0.002258 0.959927
vt 0.032744 0.950948
vt 0.002258 0.950948
vt 0.032744 0.941969
vt 0.002258 0.941969
vt 0.032744 0.932990
vt 0.002258 0.932990
vt 0.032744 0.924011
vt 0.002258 0.924011
vt 0.032744 0.915032
vt 0.002258 0.915032
vt 0.350384 0.014653
vt 0.692010 0.014653
vt 0.350384 0.991799
vt 0.692010 0.991799
vt 0.024171 0.949301
vt 0.019837 0.949301
vt 0.024171 0.948024
vt 0.019837 0.948024
vt 0.024171 0.946748
vt 0.019837 0.946748
vt 0.024027 0.932842
vt 0.019693 0.932842
vt 0.024027 0.931565
vt 0.019837 0.944195
vt 0.024171 0.942918
vt 0.019837 0.942918
vt 0.024171 0.941642
vt 0.019837 0.941642
vt 0.024171 0.940365
vt 0.019837 0.940365
vt 0.024171 0.939089
vt 0.019837 0.939089
vt 0.850615 0.017642
vt 0.998812 0.017642
vt 0.850615 0.986228
vt 0.998812 0.986228
vt 0.033015 0.981836
vt 0.002528 0.981836
vt 0.033015 0.972857
vt 0.002528 0.972857
vt 0.033015 0.963877
vt 0.002528 0.963877
vt 0.033015 0.954898
vt 0.002528 0.954898
vt 0.033015 0.945920
vt 0.002528 0.945920
vt 0.033015 0.936940
vt 0.002528 0.936940
vt 0.033015 0.927961
vt 0.002528 0.927961
vt 0.033015 0.918982
vt 0.002528 0.918982
vt 0.033015 0.910003
vt 0.002528 0.910003
vt 0.343122 0.972948
vt 0.003218 0.972948
vt 0.343122 0.021381
vt 0.003218 0.021381
vt 0.031513 0.940321
vt 0.032357 0.940321
vt 0.031513 0.965649
vt 0.032357 0.965649
vt 0.032195 0.967296
vt 0.032195 0.938674
vt 0.031323 0.938631
vt 0.031715 0.937091
vt 0.030761 0.937025
vt 0.030935 0.935631
vt 0.029856 0.935584
vt 0.029885 0.934352
vt 0.028652 0.934381
vt 0.028605 0.933302
vt 0.027212 0.933476
vt 0.027146 0.932522
vt 0.025606 0.932914
vt 0.025562 0.932041
vt 0.023915 0.932724
vt 0.023915 0.931879
vt 0.012659 0.931879
vt 0.011330 0.932724
vt 0.011012 0.932041
vt 0.009871 0.933158
vt 0.009428 0.932522
vt 0.008525 0.933871
vt 0.007968 0.933302
vt 0.007344 0.934833
vt 0.006689 0.934352
vt 0.006375 0.936007
vt 0.005639 0.935631
vt 0.005654 0.937349
vt 0.004859 0.937091
vt 0.005210 0.938806
vt 0.004379 0.938674
vt 0.005061 0.940321
vt 0.004216 0.940321
vt 0.004216 0.965649
vt 0.005061 0.965649
vt 0.004379 0.967296
vt 0.005251 0.967339
vt 0.004859 0.968879
vt 0.005813 0.968945
vt 0.005639 0.970339
vt 0.006718 0.970386
vt 0.006689 0.971618
vt 0.007921 0.971589
vt 0.007968 0.972668
vt 0.009362 0.972494
vt 0.009428 0.973448
vt 0.010968 0.973056
vt 0.011012 0.973929
vt 0.012659 0.973247
vt 0.012659 0.974091
vt 0.023915 0.973247
vt 0.023915 0.974091
vt 0.025562 0.973929
vt 0.025606 0.973056
vt 0.027146 0.973448
vt 0.027212 0.972494
vt 0.028605 0.972668
vt 0.028652 0.971589
vt 0.029885 0.971618
vt 0.029856 0.970386
vt 0.030935 0.970339
vt 0.030761 0.968945
vt 0.031715 0.968879
vt 0.031323 0.967339
vn -1.0000 0.0000 -0.0000
vn 0.0000 0.0000 1.0000
vn -0.2225 0.0000 0.9749
vn -0.4339 0.0000 0.9010
vn -0.6235 0.0000 0.7818
vn -0.7818 0.0000 0.6235
vn -0.9010 0.0000 0.4339
vn -0.9749 0.0000 0.2225
vn 1.0000 -0.0000 -0.0000
vn 0.9749 0.0000 0.2225
vn 0.9010 0.0000 0.4339
vn 0.7818 0.0000 0.6235
vn 0.6235 0.0000 0.7818
vn 0.4339 0.0000 0.9010
vn 0.2225 0.0000 0.9749
vn -0.0000 0.0000 -1.0000
vn 0.2225 0.0000 -0.9749
vn 0.4339 0.0000 -0.9010
vn 0.6235 0.0000 -0.7818
vn 0.7818 0.0000 -0.6235
vn 0.9010 0.0000 -0.4339
vn 0.9749 0.0000 -0.2225
vn -0.9806 0.0000 -0.1958
vn -0.9233 0.0000 -0.3841
vn -0.8302 0.0000 -0.5575
vn -0.7049 0.0000 -0.7093
vn -0.5524 0.0000 -0.8336
vn -0.3784 0.0000 -0.9256
vn -0.1898 0.0000 -0.9818
vn -0.9808 0.0000 -0.1951
vn -0.9239 0.0000 -0.3827
vn -0.8315 0.0000 -0.5556
vn -0.7071 0.0000 -0.7071
vn -0.5556 0.0000 -0.8315
vn -0.3827 0.0000 -0.9239
vn -0.1951 0.0000 -0.9808
vn 0.0000 1.0000 -0.0000
vn 0.1951 0.0000 -0.9808
vn 0.3827 0.0000 -0.9239
vn 0.5556 0.0000 -0.8315
vn 0.7071 0.0000 -0.7071
vn 0.8315 0.0000 -0.5556
vn 0.9239 0.0000 -0.3827
vn 0.9808 0.0000 -0.1951
vn 0.9808 0.0000 0.1951
vn 0.9239 0.0000 0.3827
vn 0.8315 0.0000 0.5556
vn 0.7071 0.0000 0.7071
vn 0.5556 0.0000 0.8315
vn 0.3827 0.0000 0.9239
vn 0.1951 0.0000 0.9808
vn -0.1951 0.0000 0.9808
vn -0.3827 0.0000 0.9239
vn -0.5556 0.0000 0.8315
vn -0.7071 0.0000 0.7071
vn -0.8315 0.0000 0.5556
vn -0.9239 0.0000 0.3827
vn -0.9808 0.0000 0.1951
vn 0.0000 -1.0000 -0.0000
usemtl Steel_-_Satin.003
s 1
f 1/1/1 2/2/1 3/3/1
f 3/3/1 2/2/1 4/4/1
f 5/5/2 6/6/2 7/7/3
f 7/7/3 6/6/2 8/8/3
f 7/7/3 8/8/3 9/9/4
f 9/9/4 8/8/3 10/10/4
f 9/9/4 10/10/4 11/11/5
f 11/11/5 10/10/4 12/12/5
f 11/11/5 12/12/5 13/13/6
f 13/13/6 12/12/5 14/14/6
f 13/13/6 14/14/6 15/15/7
f 15/15/7 14/14/6 16/16/7
f 15/15/7 16/16/7 17/17/8
f 17/17/8 16/16/7 18/18/8
f 17/17/8 18/18/8 3/3/1
f 3/3/1 18/18/8 1/19/1
f 19/20/2 6/21/2 20/22/2
f 20/22/2 6/21/2 5/23/2
f 21/24/9 22/25/9 23/26/10
f 23/26/10 22/25/9 24/27/10
f 23/26/10 24/27/10 25/28/11
f 25/28/11 24/27/10 26/29/11
f 25/28/11 26/29/11 27/30/12
f 27/30/12 26/29/11 28/31/12
f 27/30/12 28/31/12 29/32/13
f 29/32/13 28/31/12 30/33/13
f 29/32/13 30/33/13 31/34/14
f 31/34/14 30/33/13 32/35/14
f 31/34/14 32/35/14 33/36/15
f 33/36/15 32/35/14 34/37/15
f 33/36/15 34/37/15 20/22/2
f 20/22/2 34/37/15 19/38/2
f 35/39/9 22/40/9 36/41/9
f 36/41/9 22/40/9 21/42/9
f 37/43/16 38/44/16 39/45/17
f 39/45/17 38/44/16 40/46/17
f 39/45/17 40/46/17 41/47/18
f 41/47/18 40/46/17 42/48/18
f 41/47/18 42/48/18 43/49/19
f 43/49/19 42/48/18 44/50/19
f 43/49/19 44/50/19 45/51/20
f 45/51/20 44/50/19 46/52/20
f 45/51/20 46/52/20 47/53/21
f 47/53/21 46/52/20 48/54/21
f 47/53/21 48/54/21 49/55/22
f 49/55/22 48/54/21 50/56/22
f 49/55/22 50/56/22 36/41/9
f 36/41/9 50/56/22 35/57/9
f 51/58/16 38/59/16 52/60/16
f 52/60/16 38/59/16 37/61/16
f 4/62/1 2/63/1 53/64/23
f 53/64/23 2/63/1 54/65/23
f 53/64/23 54/65/23 55/66/24
f 53/64/23 55/66/24 56/67/24
f 56/67/24 55/66/24 57/68/25
f 56/67/24 57/68/25 58/69/25
f 58/69/25 57/68/25 59/70/26
f 58/69/25 59/70/26 60/71/26
f 60/71/26 59/70/26 61/72/27
f 60/71/26 61/72/27 62/73/27
f 62/73/27 61/72/27 63/74/28
f 62/73/27 63/74/28 64/75/28
f 64/75/28 63/74/28 52/60/29
f 52/60/29 63/74/28 51/76/29
f 65/77/1 66/78/1 67/79/30
f 67/79/30 66/78/1 68/80/30
f 67/79/30 68/80/30 69/81/31
f 69/81/31 68/80/30 70/82/31
f 69/81/31 70/82/31 71/83/32
f 71/83/32 70/82/31 72/84/32
f 71/83/32 72/84/32 73/85/33
f 73/85/33 72/84/32 74/86/33
f 73/85/33 74/86/33 75/87/34
f 75/87/34 74/86/33 76/88/34
f 75/87/34 76/88/34 77/89/35
f 77/89/35 76/88/34 78/90/35
f 77/89/35 78/90/35 79/91/36
f 79/91/36 78/90/35 80/92/36
f 79/91/36 80/92/36 81/93/16
f 81/93/16 80/92/36 82/94/16
f 82/95/16 83/96/16 81/97/16
f 81/97/16 83/96/16 84/98/16
f 21/99/37 66/100/37 36/101/37
f 36/101/37 66/100/37 85/102/37
f 36/101/37 85/102/37 86/103/37
f 66/100/37 21/99/37 68/104/37
f 68/104/37 21/99/37 23/105/37
f 68/104/37 23/105/37 70/106/37
f 70/106/37 23/105/37 25/107/37
f 70/106/37 25/107/37 72/108/37
f 72/108/37 25/107/37 27/109/37
f 72/108/37 27/109/37 74/110/37
f 74/110/37 27/109/37 29/111/37
f 74/110/37 29/111/37 76/112/37
f 76/112/37 29/111/37 31/113/37
f 76/112/37 31/113/37 78/114/37
f 78/114/37 31/113/37 33/115/37
f 78/114/37 33/115/37 80/116/37
f 80/116/37 33/115/37 20/117/37
f 80/116/37 20/117/37 82/118/37
f 82/118/37 20/117/37 5/119/37
f 82/118/37 5/119/37 83/120/37
f 83/120/37 5/119/37 87/121/37
f 87/121/37 5/119/37 7/122/37
f 87/121/37 7/122/37 88/123/37
f 88/123/37 7/122/37 9/124/37
f 88/123/37 9/124/37 89/125/37
f 89/125/37 9/124/37 11/126/37
f 89/125/37 11/126/37 90/127/37
f 90/127/37 11/126/37 13/128/37
f 90/127/37 13/128/37 91/129/37
f 91/129/37 13/128/37 15/130/37
f 91/129/37 15/130/37 92/131/37
f 92/131/37 15/130/37 17/132/37
f 92/131/37 17/132/37 93/133/37
f 93/133/37 17/132/37 3/134/37
f 93/133/37 3/134/37 94/135/37
f 94/135/37 3/134/37 95/136/37
f 95/136/37 3/134/37 4/137/37
f 95/136/37 4/137/37 96/138/37
f 96/138/37 4/137/37 53/139/37
f 96/138/37 53/139/37 97/140/37
f 97/140/37 53/139/37 56/141/37
f 97/140/37 56/141/37 98/142/37
f 98/142/37 56/141/37 58/143/37
f 98/142/37 58/143/37 99/144/37
f 99/144/37 58/143/37 60/145/37
f 99/144/37 60/145/37 100/146/37
f 100/146/37 60/145/37 62/147/37
f 100/146/37 62/147/37 101/148/37
f 101/148/37 62/147/37 64/149/37
f 101/148/37 64/149/37 102/150/37
f 102/150/37 64/149/37 52/151/37
f 102/150/37 52/151/37 103/152/37
f 103/152/37 52/151/37 37/153/37
f 103/152/37 37/153/37 104/154/37
f 104/154/37 37/153/37 105/155/37
f 105/155/37 37/153/37 39/156/37
f 105/155/37 39/156/37 106/157/37
f 106/157/37 39/156/37 41/158/37
f 106/157/37 41/158/37 107/159/37
f 107/159/37 41/158/37 43/160/37
f 107/159/37 43/160/37 108/161/37
f 108/161/37 43/160/37 45/162/37
f 108/161/37 45/162/37 109/163/37
f 109/163/37 45/162/37 47/164/37
f 109/163/37 47/164/37 110/165/37
f 110/165/37 47/164/37 49/166/37
f 110/165/37 49/166/37 86/103/37
f 86/103/37 49/166/37 36/101/37
f 84/167/16 83/168/16 111/169/38
f 111/169/38 83/168/16 87/170/38
f 111/169/38 87/170/38 112/171/39
f 112/171/39 87/170/38 88/172/39
f 112/171/39 88/172/39 113/173/40
f 113/173/40 88/172/39 89/174/40
f 113/173/40 89/174/40 114/175/41
f 114/175/41 89/174/40 90/176/41
f 114/175/41 90/176/41 115/177/42
f 115/177/42 90/176/41 91/178/42
f 115/177/42 91/178/42 116/179/43
f 116/179/43 91/178/42 92/180/43
f 116/179/43 92/180/43 117/181/44
f 117/181/44 92/180/43 93/182/44
f 117/181/44 93/182/44 118/183/9
f 118/183/9 93/182/44 94/184/9
f 94/185/9 95/186/9 118/187/9
f 118/187/9 95/186/9 119/188/9
f 119/189/9 95/190/9 120/191/45
f 120/191/45 95/190/9 96/192/45
f 120/191/45 96/192/45 121/193/46
f 121/193/46 96/192/45 97/194/46
f 121/193/46 97/194/46 122/195/47
f 122/195/47 97/194/46 98/196/47
f 122/195/47 98/196/47 123/197/48
f 123/197/48 98/196/47 99/198/48
f 123/197/48 99/198/48 124/199/49
f 124/199/49 99/198/48 100/200/49
f 124/199/49 100/200/49 125/201/50
f 125/201/50 100/200/49 101/202/50
f 125/201/50 101/202/50 126/203/51
f 126/203/51 101/202/50 102/204/51
f 126/203/51 102/204/51 127/205/2
f 127/205/2 102/204/51 103/206/2
f 103/207/2 104/208/2 127/209/2
f 127/209/2 104/208/2 128/210/2
f 128/211/2 104/212/2 129/213/52
f 129/213/52 104/212/2 105/214/52
f 129/213/52 105/214/52 130/215/53
f 130/215/53 105/214/52 106/216/53
f 130/215/53 106/216/53 131/217/54
f 131/217/54 106/216/53 107/218/54
f 131/217/54 107/218/54 132/219/55
f 132/219/55 107/218/54 108/220/55
f 132/219/55 108/220/55 133/221/56
f 133/221/56 108/220/55 109/222/56
f 133/221/56 109/222/56 134/223/57
f 134/223/57 109/222/56 110/224/57
f 134/223/57 110/224/57 135/225/58
f 135/225/58 110/224/57 86/226/58
f 135/225/58 86/226/58 136/227/1
f 136/227/1 86/226/58 85/228/1
f 65/229/1 136/230/1 66/231/1
f 66/231/1 136/230/1 85/232/1
f 35/233/59 136/234/59 22/235/59
f 22/235/59 136/234/59 65/236/59
f 22/235/59 65/236/59 67/237/59
f 136/234/59 35/233/59 135/238/59
f 135/238/59 35/233/59 50/239/59
f 135/238/59 50/239/59 134/240/59
f 134/240/59 50/239/59 48/241/59
f 134/240/59 48/241/59 133/242/59
f 133/242/59 48/241/59 46/243/59
f 133/242/59 46/243/59 132/244/59
f 132/244/59 46/243/59 44/245/59
f 132/244/59 44/245/59 131/246/59
f 131/246/59 44/245/59 42/247/59
f 131/246/59 42/247/59 130/248/59
f 130/248/59 42/247/59 40/249/59
f 130/248/59 40/249/59 129/250/59
f 129/250/59 40/249/59 38/251/59
f 129/250/59 38/251/59 128/252/59
f 128/252/59 38/251/59 127/253/59
f 127/253/59 38/251/59 51/254/59
f 127/253/59 51/254/59 126/255/59
f 126/255/59 51/254/59 63/256/59
f 126/255/59 63/256/59 125/257/59
f 125/257/59 63/256/59 61/258/59
f 125/257/59 61/258/59 124/259/59
f 124/259/59 61/258/59 59/260/59
f 124/259/59 59/260/59 123/261/59
f 123/261/59 59/260/59 57/262/59
f 123/261/59 57/262/59 122/263/59
f 122/263/59 57/262/59 55/264/59
f 122/263/59 55/264/59 121/265/59
f 121/265/59 55/264/59 54/266/59
f 121/265/59 54/266/59 120/267/59
f 120/267/59 54/266/59 2/268/59
f 120/267/59 2/268/59 119/269/59
f 119/269/59 2/268/59 118/270/59
f 118/270/59 2/268/59 1/271/59
f 118/270/59 1/271/59 117/272/59
f 117/272/59 1/271/59 18/273/59
f 117/272/59 18/273/59 116/274/59
f 116/274/59 18/273/59 16/275/59
f 116/274/59 16/275/59 115/276/59
f 115/276/59 16/275/59 14/277/59
f 115/276/59 14/277/59 114/278/59
f 114/278/59 14/277/59 12/279/59
f 114/278/59 12/279/59 113/280/59
f 113/280/59 12/279/59 10/281/59
f 113/280/59 10/281/59 112/282/59
f 112/282/59 10/281/59 8/283/59
f 112/282/59 8/283/59 111/284/59
f 111/284/59 8/283/59 6/285/59
f 111/284/59 6/285/59 84/286/59
f 84/286/59 6/285/59 19/287/59
f 84/286/59 19/287/59 81/288/59
f 81/288/59 19/287/59 79/289/59
f 79/289/59 19/287/59 34/290/59
f 79/289/59 34/290/59 77/291/59
f 77/291/59 34/290/59 32/292/59
f 77/291/59 32/292/59 75/293/59
f 75/293/59 32/292/59 30/294/59
f 75/293/59 30/294/59 73/295/59
f 73/295/59 30/294/59 28/296/59
f 73/295/59 28/296/59 71/297/59
f 71/297/59 28/296/59 26/298/59
f 71/297/59 26/298/59 69/299/59
f 69/299/59 26/298/59 24/300/59
f 69/299/59 24/300/59 67/237/59
f 67/237/59 24/300/59 22/235/59
