# Blender v2.90.1 OBJ File: ''
# www.blender.org
mtllib wardrobe.mtl
o Wardrobe_v2
v 35.000000 10.000000 20.000000
v 35.000000 170.000000 20.000000
v 35.000000 10.000000 17.000000
v 35.000000 170.000000 17.000000
v 2.500000 170.000000 20.000000
v 2.500000 170.000000 17.000000
v 2.500000 10.000000 20.000000
v 2.500000 10.000000 17.000000
v -2.500000 10.000000 20.000000
v -2.500000 170.000000 20.000000
v -2.500000 10.000000 17.000000
v -2.500000 170.000000 17.000000
v -35.000000 170.000000 20.000000
v -35.000000 170.000000 17.000000
v -35.000000 10.000000 20.000000
v -35.000000 10.000000 17.000000
v -35.000000 5.000000 -11.500000
v -35.000000 0.000000 -11.500000
v -30.000000 5.000000 -11.500000
v -30.000000 0.000000 -11.500000
v 35.000000 0.000000 -11.500000
v 35.000000 5.000000 -11.500000
v 30.000000 0.000000 -11.500000
v 30.000000 5.000000 -11.500000
v -35.000000 0.000000 11.500000
v -35.000000 5.000000 11.500000
v -30.000000 0.000000 11.500000
v -30.000000 5.000000 11.500000
v 35.000000 5.000000 11.500000
v 35.000000 0.000000 11.500000
v 30.000000 5.000000 11.500000
v 30.000000 0.000000 11.500000
v -30.000000 5.000000 -16.500000
v -30.000000 0.000000 -16.500000
v -35.000000 5.000000 -16.500000
v -35.000000 0.000000 -16.500000
v 35.000000 5.000000 -16.500000
v 35.000000 0.000000 -16.500000
v 30.000000 5.000000 -16.500000
v 30.000000 0.000000 -16.500000
v -35.000000 5.000000 16.500000
v -35.000000 0.000000 16.500000
v -30.000000 5.000000 16.500000
v -30.000000 0.000000 16.500000
v 35.000000 0.000000 16.500000
v 35.000000 5.000000 16.500000
v 30.000000 0.000000 16.500000
v 30.000000 5.000000 16.500000
v -40.000000 5.000000 -20.000000
v -40.000000 175.000000 -20.000000
v 40.000000 5.000000 -20.000000
v 40.000000 175.000000 -20.000000
v 40.000000 175.000000 20.000000
v 40.000000 5.000000 20.000000
v -40.000000 5.000000 20.000000
v -40.000000 175.000000 20.000000
vt 0.407836 0.127626
vt 0.827147 0.127626
vt 0.407836 0.135488
vt 0.827147 0.135488
vt 0.107884 0.254230
vt 0.410321 0.254230
vt 0.107884 0.282147
vt 0.410321 0.282147
vt 0.406515 0.107814
vt 0.825826 0.107814
vt 0.406515 0.115677
vt 0.825826 0.115677
vt 0.110229 0.254230
vt 0.412666 0.254230
vt 0.110229 0.282147
vt 0.412666 0.282147
vt 0.767305 0.757521
vt 0.224821 0.757521
vt 0.767305 0.647329
vt 0.224821 0.647329
vt 0.407836 0.089324
vt 0.827147 0.089324
vt 0.407836 0.097186
vt 0.827147 0.097186
vt 0.110229 0.254230
vt 0.412666 0.254230
vt 0.110229 0.282147
vt 0.412666 0.282147
vt 0.409157 0.069513
vt 0.828468 0.069513
vt 0.409157 0.077375
vt 0.828468 0.077375
vt 0.110229 0.254230
vt 0.412666 0.254230
vt 0.110229 0.282147
vt 0.412666 0.282147
vt 0.849784 0.826393
vt 0.032161 0.826393
vt 0.849784 0.660313
vt 0.032161 0.660313
vt 0.237167 0.035784
vt 0.283696 0.035784
vt 0.237167 0.082313
vt 0.283696 0.082313
vt 0.117208 0.178343
vt 0.070679 0.178343
vt 0.117208 0.131814
vt 0.070679 0.131814
vt 0.237167 0.035784
vt 0.283696 0.035784
vt 0.237167 0.082313
vt 0.283696 0.082313
vt 0.215694 0.201792
vt 0.169165 0.201792
vt 0.215694 0.155263
vt 0.169165 0.155263
vt 0.283696 0.082313
vt 0.237167 0.082313
vt 0.283696 0.035784
vt 0.237167 0.035784
vt 0.295421 0.206482
vt 0.248892 0.206482
vt 0.295421 0.159953
vt 0.248892 0.159953
vt 0.237167 0.035784
vt 0.283696 0.035784
vt 0.237167 0.082313
vt 0.283696 0.082313
vt 0.239143 0.154894
vt 0.192614 0.154894
vt 0.239143 0.108365
vt 0.192614 0.108365
vt 0.763021 0.292457
vt 0.923694 0.292457
vt 0.763021 0.368068
vt 0.923694 0.368068
vt 0.269627 0.093926
vt 0.316156 0.093926
vt 0.269627 0.140456
vt 0.316156 0.140456
vt 0.269627 0.093926
vt 0.316156 0.093926
vt 0.269627 0.140456
vt 0.316156 0.140456
vt 0.269627 0.093926
vt 0.316156 0.093926
vt 0.269627 0.140456
vt 0.316156 0.140456
vt 0.121529 0.072176
vt 0.075000 0.072176
vt 0.121529 0.025647
vt 0.075000 0.025647
vt 0.201255 0.086246
vt 0.154726 0.086246
vt 0.201255 0.039717
vt 0.154726 0.039717
vt 0.201255 0.086246
vt 0.154726 0.086246
vt 0.201255 0.039717
vt 0.154726 0.039717
vt 0.133940 0.400840
vt 0.133940 0.453164
vt 0.125890 0.461213
vt 0.391533 0.453164
vt 0.399583 0.461213
vt 0.391533 0.400840
vt 0.399583 0.332417
vt 0.391533 0.392790
vt 0.391533 0.340467
vt 0.133940 0.392790
vt 0.125890 0.332417
vt 0.133940 0.340467
vt 0.201255 0.086246
vt 0.154726 0.086246
vt 0.201255 0.039717
vt 0.154726 0.039717
vt 0.201255 0.086246
vt 0.154726 0.086246
vt 0.201255 0.039717
vt 0.154726 0.039717
vt 0.201255 0.086246
vt 0.154726 0.086246
vt 0.201255 0.039717
vt 0.154726 0.039717
vt 0.838575 0.454934
vt 0.833850 0.458242
vt 0.838575 0.450208
vt 0.833850 0.420436
vt 0.838575 0.428470
vt 0.838575 0.423744
vt 0.843301 0.423744
vt 0.909461 0.420436
vt 0.900009 0.423744
vt 0.904735 0.423744
vt 0.904735 0.428470
vt 0.904735 0.450208
vt 0.900009 0.450208
vt 0.843301 0.454934
vt 0.900009 0.454934
vt 0.909461 0.458242
vt 0.904735 0.454934
vt 0.843301 0.450208
vt 0.900009 0.428470
vt 0.843301 0.428470
vt 0.690557 0.376275
vt 0.416864 0.376275
vt 0.690557 0.311877
vt 0.416864 0.311877
vt 0.904221 0.412039
vt 0.828610 0.412039
vt 0.904221 0.374233
vt 0.828610 0.374233
vt 0.698671 0.449298
vt 0.424978 0.449298
vt 0.698671 0.384900
vt 0.424978 0.384900
vt 0.269627 0.093926
vt 0.316156 0.093926
vt 0.269627 0.140456
vt 0.316156 0.140456
vt 0.269627 0.093926
vt 0.316156 0.093926
vt 0.269627 0.140456
vt 0.316156 0.140456
vt 0.269627 0.093926
vt 0.316156 0.093926
vt 0.269627 0.140456
vt 0.316156 0.140456
vn -1.0000 0.0000 0.0000
vn 0.0000 -1.0000 0.0000
vn 1.0000 0.0000 0.0000
vn 0.0000 1.0000 0.0000
vn 0.0000 0.0000 1.0000
vn 0.0000 0.0000 -1.0000
usemtl Steel_-_Satin
s 1
f 1/1/1 2/2/1 3/3/1
f 3/3/1 2/2/1 4/4/1
f 2/5/2 5/6/2 4/7/2
f 4/7/2 5/6/2 6/8/2
f 5/9/3 7/10/3 6/11/3
f 6/11/3 7/10/3 8/12/3
f 7/13/4 1/14/4 8/15/4
f 8/15/4 1/14/4 3/16/4
f 3/17/5 4/18/5 8/19/5
f 8/19/5 4/18/5 6/20/5
f 9/21/1 10/22/1 11/23/1
f 11/23/1 10/22/1 12/24/1
f 10/25/2 13/26/2 12/27/2
f 12/27/2 13/26/2 14/28/2
f 13/29/3 15/30/3 14/31/3
f 14/31/3 15/30/3 16/32/3
f 15/33/4 9/34/4 16/35/4
f 16/35/4 9/34/4 11/36/4
f 11/37/5 12/38/5 16/39/5
f 16/39/5 12/38/5 14/40/5
f 17/41/5 18/42/5 19/43/5
f 19/43/5 18/42/5 20/44/5
f 21/45/5 22/46/5 23/47/5
f 23/47/5 22/46/5 24/48/5
f 25/49/6 26/50/6 27/51/6
f 27/51/6 26/50/6 28/52/6
f 29/53/6 30/54/6 31/55/6
f 31/55/6 30/54/6 32/56/6
f 33/57/6 34/58/6 35/59/6
f 35/59/6 34/58/6 36/60/6
f 37/61/6 38/62/6 39/63/6
f 39/63/6 38/62/6 40/64/6
f 41/65/5 42/66/5 43/67/5
f 43/67/5 42/66/5 44/68/5
f 45/69/5 46/70/5 47/71/5
f 47/71/5 46/70/5 48/72/5
f 49/73/6 50/74/6 51/75/6
f 51/75/6 50/74/6 52/76/6
f 22/77/3 21/78/3 37/79/3
f 37/79/3 21/78/3 38/80/3
f 21/81/2 23/82/2 38/83/2
f 38/83/2 23/82/2 40/84/2
f 23/85/1 24/86/1 40/87/1
f 40/87/1 24/86/1 39/88/1
f 26/89/1 25/90/1 41/91/1
f 41/91/1 25/90/1 42/92/1
f 27/93/3 28/94/3 44/95/3
f 44/95/3 28/94/3 43/96/3
f 25/97/2 27/98/2 42/99/2
f 42/99/2 27/98/2 44/100/2
f 5/101/5 2/102/5 53/103/5
f 53/103/5 2/102/5 1/104/5
f 53/103/5 1/104/5 54/105/5
f 54/105/5 1/104/5 7/106/5
f 54/105/5 7/106/5 55/107/5
f 55/107/5 7/106/5 9/108/5
f 55/107/5 9/108/5 15/109/5
f 7/106/5 5/101/5 9/108/5
f 9/108/5 5/101/5 10/110/5
f 10/110/5 5/101/5 56/111/5
f 10/110/5 56/111/5 13/112/5
f 13/112/5 56/111/5 55/107/5
f 13/112/5 55/107/5 15/109/5
f 56/111/5 5/101/5 53/103/5
f 31/113/1 32/114/1 48/115/1
f 48/115/1 32/114/1 47/116/1
f 32/117/2 30/118/2 47/119/2
f 47/119/2 30/118/2 45/120/2
f 30/121/3 29/122/3 45/123/3
f 45/123/3 29/122/3 46/124/3
f 37/125/2 51/126/2 22/127/2
f 22/127/2 51/126/2 54/128/2
f 22/127/2 54/128/2 29/129/2
f 29/129/2 54/128/2 46/130/2
f 46/130/2 54/128/2 48/131/2
f 48/131/2 54/128/2 55/132/2
f 48/131/2 55/132/2 43/133/2
f 43/133/2 55/132/2 41/134/2
f 41/134/2 55/132/2 26/135/2
f 26/135/2 55/132/2 17/136/2
f 26/135/2 17/136/2 19/137/2
f 37/125/2 39/138/2 51/126/2
f 51/126/2 39/138/2 33/139/2
f 51/126/2 33/139/2 49/140/2
f 49/140/2 33/139/2 35/141/2
f 49/140/2 35/141/2 17/136/2
f 33/139/2 39/138/2 19/137/2
f 19/137/2 39/138/2 24/142/2
f 19/137/2 24/142/2 28/143/2
f 28/143/2 24/142/2 31/144/2
f 28/143/2 31/144/2 43/133/2
f 43/133/2 31/144/2 48/131/2
f 24/142/2 22/127/2 31/144/2
f 31/144/2 22/127/2 29/129/2
f 28/143/2 26/135/2 19/137/2
f 55/132/2 49/140/2 17/136/2
f 51/145/3 52/146/3 54/147/3
f 54/147/3 52/146/3 53/148/3
f 52/149/4 50/150/4 53/151/4
f 53/151/4 50/150/4 56/152/4
f 50/153/1 49/154/1 56/155/1
f 56/155/1 49/154/1 55/156/1
f 18/157/1 17/158/1 36/159/1
f 36/159/1 17/158/1 35/160/1
f 20/161/2 18/162/2 34/163/2
f 34/163/2 18/162/2 36/164/2
f 19/165/3 20/166/3 33/167/3
f 33/167/3 20/166/3 34/168/3
